%TF.GenerationSoftware,KiCad,Pcbnew,(6.0.0)*%
%TF.CreationDate,2022-01-26T17:49:50-05:00*%
%TF.ProjectId,aether,61657468-6572-42e6-9b69-6361645f7063,1*%
%TF.SameCoordinates,Original*%
%TF.FileFunction,Soldermask,Bot*%
%TF.FilePolarity,Negative*%
%FSLAX46Y46*%
G04 Gerber Fmt 4.6, Leading zero omitted, Abs format (unit mm)*
G04 Created by KiCad (PCBNEW (6.0.0)) date 2022-01-26 17:49:50*
%MOMM*%
%LPD*%
G01*
G04 APERTURE LIST*
G04 Aperture macros list*
%AMRoundRect*
0 Rectangle with rounded corners*
0 $1 Rounding radius*
0 $2 $3 $4 $5 $6 $7 $8 $9 X,Y pos of 4 corners*
0 Add a 4 corners polygon primitive as box body*
4,1,4,$2,$3,$4,$5,$6,$7,$8,$9,$2,$3,0*
0 Add four circle primitives for the rounded corners*
1,1,$1+$1,$2,$3*
1,1,$1+$1,$4,$5*
1,1,$1+$1,$6,$7*
1,1,$1+$1,$8,$9*
0 Add four rect primitives between the rounded corners*
20,1,$1+$1,$2,$3,$4,$5,0*
20,1,$1+$1,$4,$5,$6,$7,0*
20,1,$1+$1,$6,$7,$8,$9,0*
20,1,$1+$1,$8,$9,$2,$3,0*%
G04 Aperture macros list end*
%ADD10C,2.600000*%
%ADD11C,3.800000*%
%ADD12C,1.400000*%
%ADD13R,1.980000X3.960000*%
%ADD14O,1.980000X3.960000*%
%ADD15C,2.800000*%
%ADD16RoundRect,0.250000X0.600000X0.725000X-0.600000X0.725000X-0.600000X-0.725000X0.600000X-0.725000X0*%
%ADD17O,1.700000X1.950000*%
%ADD18C,2.000000*%
%ADD19R,2.400000X2.400000*%
%ADD20C,2.400000*%
%ADD21C,0.650000*%
%ADD22O,1.600000X1.000000*%
%ADD23O,2.100000X1.000000*%
%ADD24C,0.812800*%
%ADD25R,3.500000X3.500000*%
%ADD26RoundRect,0.750000X-0.750000X-1.000000X0.750000X-1.000000X0.750000X1.000000X-0.750000X1.000000X0*%
%ADD27RoundRect,0.875000X-0.875000X-0.875000X0.875000X-0.875000X0.875000X0.875000X-0.875000X0.875000X0*%
%ADD28C,2.050000*%
%ADD29C,2.250000*%
G04 APERTURE END LIST*
D10*
%TO.C,H2*%
X119380000Y-135128000D03*
D11*
X119380000Y-135128000D03*
%TD*%
D12*
%TO.C,USB5V1*%
X118130000Y-125095000D03*
X120670000Y-125095000D03*
%TD*%
D13*
%TO.C,10k1*%
X165179800Y-76758800D03*
D14*
X170179800Y-76758800D03*
%TD*%
D12*
%TO.C,DC_Input2*%
X154305000Y-78105000D03*
X156845000Y-78105000D03*
%TD*%
D15*
%TO.C,TP1*%
X189839600Y-80365600D03*
%TD*%
D16*
%TO.C,PMSensor1*%
X180768000Y-135428000D03*
D17*
X178268000Y-135428000D03*
X175768000Y-135428000D03*
X173268000Y-135428000D03*
X170768000Y-135428000D03*
%TD*%
D12*
%TO.C,5V_Test1*%
X188234000Y-134620000D03*
X190774000Y-134620000D03*
%TD*%
D18*
%TO.C,D+1*%
X124358400Y-131064000D03*
%TD*%
D10*
%TO.C,H4*%
X119126000Y-72898000D03*
D11*
X119126000Y-72898000D03*
%TD*%
D18*
%TO.C,D-1*%
X118922800Y-131114800D03*
%TD*%
D19*
%TO.C,C1*%
X141829785Y-78740000D03*
D20*
X146829785Y-78740000D03*
%TD*%
D12*
%TO.C,3.3V_Test1*%
X157022800Y-72390000D03*
X154482800Y-72390000D03*
%TD*%
D11*
%TO.C,H1*%
X196342000Y-134874000D03*
D10*
X196342000Y-134874000D03*
%TD*%
D12*
%TO.C,Li-Batt1*%
X189707200Y-72593200D03*
X192247200Y-72593200D03*
%TD*%
D21*
%TO.C,J1*%
X120715000Y-100680000D03*
X120715000Y-94900000D03*
D22*
X117035000Y-102110000D03*
D23*
X121215000Y-93470000D03*
D22*
X117035000Y-93470000D03*
D23*
X121215000Y-102110000D03*
%TD*%
D24*
%TO.C,J2*%
X196215000Y-121285000D03*
X197485000Y-121285000D03*
X196215000Y-122555000D03*
X197485000Y-122555000D03*
X196215000Y-123825000D03*
X197475000Y-123825000D03*
X196215000Y-125095000D03*
X197485000Y-125095000D03*
X196215000Y-126365000D03*
X197485000Y-126365000D03*
%TD*%
D25*
%TO.C,DC_Input1*%
X124374589Y-81220310D03*
D26*
X118374589Y-81220310D03*
D27*
X121374589Y-85920310D03*
%TD*%
D28*
%TO.C,AE1*%
X194945000Y-107315000D03*
D29*
X197485000Y-104775000D03*
X192405000Y-104775000D03*
X197485000Y-109855000D03*
X192405000Y-109855000D03*
%TD*%
D10*
%TO.C,H3*%
X196342000Y-72898000D03*
D11*
X196342000Y-72898000D03*
%TD*%
M02*
