M48
; DRILL file {KiCad (6.0.0)} date Wed Jan 26 17:49:46 2022
; FORMAT={-:-/ absolute / inch / decimal}
; #@! TF.CreationDate,2022-01-26T17:49:46-05:00
; #@! TF.GenerationSoftware,Kicad,Pcbnew,(6.0.0)
; #@! TF.FileFunction,Plated,1,4,PTH
FMAT,2
INCH
; #@! TA.AperFunction,Plated,PTH,ViaDrill
T1C0.0157
; #@! TA.AperFunction,Plated,PTH,ComponentDrill
T2C0.0236
; #@! TA.AperFunction,Plated,PTH,ComponentDrill
T3C0.0295
; #@! TA.AperFunction,Plated,PTH,ComponentDrill
T4C0.0315
; #@! TA.AperFunction,Plated,PTH,ComponentDrill
T5C0.0374
; #@! TA.AperFunction,Plated,PTH,ComponentDrill
T6C0.0394
; #@! TA.AperFunction,Plated,PTH,ComponentDrill
T7C0.0472
; #@! TA.AperFunction,Plated,PTH,ComponentDrill
T8C0.0520
; #@! TA.AperFunction,Plated,PTH,ComponentDrill
T9C0.0591
; #@! TA.AperFunction,Plated,PTH,ComponentDrill
T10C0.0630
; #@! TA.AperFunction,Plated,PTH,ComponentDrill
T11C0.0669
; #@! TA.AperFunction,Plated,PTH,ComponentDrill
T12C0.0866
%
G90
G05
T1
X4.8Y-4.175
X4.825Y-4.325
X4.8465Y-4.075
X4.882Y-3.568
X4.925Y-3.925
X4.95Y-3.825
X4.968Y-2.862
X5.026Y-4.0
X5.046Y-3.045
X5.1Y-3.2
X5.1Y-4.25
X5.15Y-4.575
X5.15Y-4.725
X5.2Y-5.2
X5.22Y-4.47
X5.234Y-3.99
X5.25Y-4.175
X5.325Y-4.175
X5.35Y-3.475
X5.35Y-4.025
X5.475Y-4.5
X5.475Y-5.0
X5.475Y-5.2
X5.5Y-3.75
X5.5Y-4.55
X5.51Y-4.79
X5.575Y-4.05
X5.625Y-3.85
X5.65Y-3.6
X5.65Y-4.725
X5.67Y-4.83
X5.67Y-5.0
X5.675Y-4.575
X5.675Y-4.9
X5.675Y-5.125
X5.6941Y-4.5156
X5.72Y-4.448
X5.725Y-3.95
X5.725Y-4.0
X5.725Y-4.2
X5.85Y-4.675
X5.875Y-3.575
X5.875Y-4.1
X5.875Y-4.925
X5.8923Y-4.1423
X5.9Y-4.675
X5.9Y-4.775
X5.9Y-5.35
X5.925Y-3.75
X5.95Y-4.3
X5.95Y-5.35
X6.0Y-4.1
X6.075Y-3.825
X6.075Y-4.075
X6.075Y-4.625
X6.1Y-3.925
X6.1Y-4.575
X6.125Y-3.875
X6.15Y-3.425
X6.175Y-3.725
X6.175Y-4.2
X6.225Y-4.675
X6.275Y-4.625
X6.3Y-4.375
X6.35Y-4.9
X6.375Y-3.35
X6.375Y-4.425
X6.4Y-4.5
X6.4Y-4.775
X6.425Y-5.125
X6.4465Y-3.675
X6.45Y-4.125
X6.475Y-3.3
X6.475Y-3.725
X6.475Y-4.375
X6.4997Y-4.3285
X6.5Y-4.175
X6.5Y-4.45
X6.5Y-4.675
X6.5Y-5.25
X6.5215Y-4.575
X6.55Y-4.225
X6.6Y-4.075
X6.625Y-3.925
X6.625Y-4.925
X6.675Y-3.975
X6.675Y-4.5
X6.675Y-4.85
X6.725Y-3.5
X6.725Y-5.125
X6.75Y-4.8
X6.75Y-4.925
X6.775Y-4.45
X6.8Y-4.55
X6.825Y-3.6
X6.85Y-3.725
X6.85Y-5.05
X6.925Y-2.975
X6.925Y-4.6
X6.925Y-5.0
X6.95Y-3.3
X6.95Y-4.425
X6.95Y-4.55
X7.025Y-3.6
X7.025Y-4.525
X7.05Y-4.425
X7.05Y-4.925
X7.0715Y-4.2
X7.0965Y-4.15
X7.1Y-4.425
X7.1Y-4.85
X7.125Y-3.2
X7.125Y-4.025
X7.15Y-4.425
X7.15Y-4.6
X7.1785Y-3.575
X7.2Y-3.45
X7.2Y-4.925
X7.225Y-3.8
X7.2699Y-4.5102
X7.3Y-3.6
X7.3Y-4.575
X7.35Y-3.6
X7.35Y-4.8
X7.375Y-3.025
X7.375Y-3.722
X7.375Y-3.85
X7.375Y-4.9
X7.425Y-3.575
X7.45Y-4.9
X7.475Y-3.975
X7.475Y-4.025
X7.475Y-4.075
X7.475Y-4.125
X7.475Y-4.175
X7.475Y-4.275
X7.475Y-4.325
X7.475Y-4.375
X7.475Y-4.425
X7.5Y-3.35
X7.5Y-4.475
X7.525Y-3.95
X7.525Y-4.0
X7.55Y-4.425
X7.55Y-4.475
X7.55Y-4.525
X7.5749Y-3.9244
X7.575Y-3.775
X7.575Y-3.975
X7.575Y-4.025
X7.6Y-4.425
X7.6Y-4.475
X7.6Y-4.525
X7.6248Y-3.9244
X7.6249Y-3.9741
X7.625Y-4.025
X7.6499Y-4.5247
X7.65Y-4.425
X7.65Y-4.475
X7.675Y-3.925
X7.675Y-3.975
X7.675Y-4.025
X7.7Y-3.525
X7.7Y-3.675
X7.7Y-4.425
X7.7Y-4.475
X7.7Y-4.525
X7.725Y-3.925
X7.725Y-3.975
X7.725Y-4.025
X7.75Y-4.425
X7.75Y-4.525
X7.7521Y-4.4752
X7.775Y-3.925
X7.775Y-3.975
X7.775Y-4.025
X7.8Y-4.425
X7.8Y-4.475
X7.8Y-4.525
T3
X7.725Y-4.775
X7.725Y-4.825
X7.725Y-4.875
X7.725Y-4.925
X7.725Y-4.975
X7.7746Y-4.875
X7.775Y-4.775
X7.775Y-4.825
X7.775Y-4.925
X7.775Y-4.975
T4
X4.6508Y-4.925
X4.7508Y-4.925
X6.075Y-3.075
X6.082Y-2.85
X6.175Y-3.075
X6.182Y-2.85
X7.4108Y-5.3
X7.4688Y-2.858
X7.5108Y-5.3
X7.5688Y-2.858
T5
X6.7231Y-5.3318
X6.8216Y-5.3318
X6.92Y-5.3318
X7.0184Y-5.3318
X7.1169Y-5.3318
T6
X4.682Y-5.162
X4.896Y-5.16
T7
X5.5838Y-3.1
X5.7807Y-3.1
T8
X6.5031Y-3.022
X6.7Y-3.022
T9
X7.675Y-4.225
T10
X7.474Y-3.164
T11
X7.575Y-4.125
X7.575Y-4.325
X7.775Y-4.125
X7.775Y-4.325
T12
X4.69Y-2.87
X4.7Y-5.32
X7.73Y-2.87
X7.73Y-5.31
T2
G00X4.6195Y-3.6799
M15
G01X4.5959Y-3.6799
M16
G05
G00X4.6195Y-4.0201
M15
G01X4.5959Y-4.0201
M16
G05
G00X4.7939Y-3.6799
M15
G01X4.7506Y-3.6799
M16
G05
G00X4.7939Y-4.0201
M15
G01X4.7506Y-4.0201
M16
G05
T6
G00X4.6604Y-3.1583
M15
G01X4.6604Y-3.237
M16
G05
G00X4.7392Y-3.3827
M15
G01X4.8179Y-3.3827
M16
G05
G00X4.8966Y-3.1583
M15
G01X4.8966Y-3.237
M16
G05
T0
M30
