%TF.GenerationSoftware,KiCad,Pcbnew,(6.0.0)*%
%TF.CreationDate,2022-01-26T17:49:50-05:00*%
%TF.ProjectId,aether,61657468-6572-42e6-9b69-6361645f7063,1*%
%TF.SameCoordinates,Original*%
%TF.FileFunction,Copper,L4,Bot*%
%TF.FilePolarity,Positive*%
%FSLAX46Y46*%
G04 Gerber Fmt 4.6, Leading zero omitted, Abs format (unit mm)*
G04 Created by KiCad (PCBNEW (6.0.0)) date 2022-01-26 17:49:50*
%MOMM*%
%LPD*%
G01*
G04 APERTURE LIST*
G04 Aperture macros list*
%AMRoundRect*
0 Rectangle with rounded corners*
0 $1 Rounding radius*
0 $2 $3 $4 $5 $6 $7 $8 $9 X,Y pos of 4 corners*
0 Add a 4 corners polygon primitive as box body*
4,1,4,$2,$3,$4,$5,$6,$7,$8,$9,$2,$3,0*
0 Add four circle primitives for the rounded corners*
1,1,$1+$1,$2,$3*
1,1,$1+$1,$4,$5*
1,1,$1+$1,$6,$7*
1,1,$1+$1,$8,$9*
0 Add four rect primitives between the rounded corners*
20,1,$1+$1,$2,$3,$4,$5,0*
20,1,$1+$1,$4,$5,$6,$7,0*
20,1,$1+$1,$6,$7,$8,$9,0*
20,1,$1+$1,$8,$9,$2,$3,0*%
G04 Aperture macros list end*
%TA.AperFunction,ComponentPad*%
%ADD10C,2.600000*%
%TD*%
%TA.AperFunction,ConnectorPad*%
%ADD11C,3.800000*%
%TD*%
%TA.AperFunction,ComponentPad*%
%ADD12C,1.400000*%
%TD*%
%TA.AperFunction,ComponentPad*%
%ADD13R,1.980000X3.960000*%
%TD*%
%TA.AperFunction,ComponentPad*%
%ADD14O,1.980000X3.960000*%
%TD*%
%TA.AperFunction,ComponentPad*%
%ADD15C,2.800000*%
%TD*%
%TA.AperFunction,ComponentPad*%
%ADD16RoundRect,0.250000X0.600000X0.725000X-0.600000X0.725000X-0.600000X-0.725000X0.600000X-0.725000X0*%
%TD*%
%TA.AperFunction,ComponentPad*%
%ADD17O,1.700000X1.950000*%
%TD*%
%TA.AperFunction,ComponentPad*%
%ADD18C,2.000000*%
%TD*%
%TA.AperFunction,ComponentPad*%
%ADD19R,2.400000X2.400000*%
%TD*%
%TA.AperFunction,ComponentPad*%
%ADD20C,2.400000*%
%TD*%
%TA.AperFunction,ComponentPad*%
%ADD21O,1.600000X1.000000*%
%TD*%
%TA.AperFunction,ComponentPad*%
%ADD22O,2.100000X1.000000*%
%TD*%
%TA.AperFunction,ComponentPad*%
%ADD23C,0.812800*%
%TD*%
%TA.AperFunction,ComponentPad*%
%ADD24R,3.500000X3.500000*%
%TD*%
%TA.AperFunction,ComponentPad*%
%ADD25RoundRect,0.750000X-0.750000X-1.000000X0.750000X-1.000000X0.750000X1.000000X-0.750000X1.000000X0*%
%TD*%
%TA.AperFunction,ComponentPad*%
%ADD26RoundRect,0.875000X-0.875000X-0.875000X0.875000X-0.875000X0.875000X0.875000X-0.875000X0.875000X0*%
%TD*%
%TA.AperFunction,ComponentPad*%
%ADD27C,2.050000*%
%TD*%
%TA.AperFunction,ComponentPad*%
%ADD28C,2.250000*%
%TD*%
%TA.AperFunction,ViaPad*%
%ADD29C,0.800000*%
%TD*%
%TA.AperFunction,Conductor*%
%ADD30C,0.250000*%
%TD*%
G04 APERTURE END LIST*
D10*
%TO.P,H2,1,1*%
%TO.N,GND*%
X119380000Y-135128000D03*
D11*
X119380000Y-135128000D03*
%TD*%
D12*
%TO.P,USB5V1,1,1*%
%TO.N,USB5V*%
X118130000Y-125095000D03*
%TO.P,USB5V1,2,2*%
%TO.N,GND*%
X120670000Y-125095000D03*
%TD*%
D13*
%TO.P,10k1,1*%
%TO.N,Net-(10k1-Pad1)*%
X165179800Y-76758800D03*
D14*
%TO.P,10k1,2*%
%TO.N,GND*%
X170179800Y-76758800D03*
%TD*%
D12*
%TO.P,DC_Input2,1,1*%
%TO.N,GND*%
X154305000Y-78105000D03*
%TO.P,DC_Input2,2,2*%
%TO.N,VCC*%
X156845000Y-78105000D03*
%TD*%
D15*
%TO.P,TP1,1,1*%
%TO.N,Net-(TP1-Pad1)*%
X189839600Y-80365600D03*
%TD*%
D16*
%TO.P,PMSensor1,1,VDD*%
%TO.N,+5V*%
X180768000Y-135428000D03*
D17*
%TO.P,PMSensor1,2,SDA*%
%TO.N,PA15{slash}SDA*%
X178268000Y-135428000D03*
%TO.P,PMSensor1,3,SCL*%
%TO.N,PB15{slash}SCL*%
X175768000Y-135428000D03*
%TO.P,PMSensor1,4,SEL*%
%TO.N,GND*%
X173268000Y-135428000D03*
%TO.P,PMSensor1,5,GND*%
X170768000Y-135428000D03*
%TD*%
D12*
%TO.P,5V_Test1,1,1*%
%TO.N,+5V*%
X188234000Y-134620000D03*
%TO.P,5V_Test1,2,2*%
%TO.N,GND*%
X190774000Y-134620000D03*
%TD*%
D18*
%TO.P,D+1,1,1*%
%TO.N,Net-(D+1-Pad1)*%
X124358400Y-131064000D03*
%TD*%
D10*
%TO.P,H4,1,1*%
%TO.N,GND*%
X119126000Y-72898000D03*
D11*
X119126000Y-72898000D03*
%TD*%
D18*
%TO.P,D-1,1,1*%
%TO.N,Net-(D-1-Pad1)*%
X118922800Y-131114800D03*
%TD*%
D19*
%TO.P,C1,1*%
%TO.N,VCC*%
X141829785Y-78740000D03*
D20*
%TO.P,C1,2*%
%TO.N,GND*%
X146829785Y-78740000D03*
%TD*%
D12*
%TO.P,3.3V_Test1,1,1*%
%TO.N,+3.3V*%
X157022800Y-72390000D03*
%TO.P,3.3V_Test1,2,2*%
%TO.N,GND*%
X154482800Y-72390000D03*
%TD*%
D11*
%TO.P,H1,1,1*%
%TO.N,GND*%
X196342000Y-134874000D03*
D10*
X196342000Y-134874000D03*
%TD*%
D12*
%TO.P,Li-Batt1,1,1*%
%TO.N,Battery*%
X189707200Y-72593200D03*
%TO.P,Li-Batt1,2,2*%
%TO.N,GND*%
X192247200Y-72593200D03*
%TD*%
D21*
%TO.P,J1,S1,SHIELD*%
%TO.N,GND*%
X117035000Y-102110000D03*
D22*
X121215000Y-93470000D03*
D21*
X117035000Y-93470000D03*
D22*
X121215000Y-102110000D03*
%TD*%
D23*
%TO.P,J2,1,VDD*%
%TO.N,+3.3V*%
X196215000Y-121285000D03*
%TO.P,J2,2,SWDIO*%
%TO.N,PA13{slash}SWDIO*%
X197485000Y-121285000D03*
%TO.P,J2,3,GND*%
%TO.N,GND*%
X196215000Y-122555000D03*
%TO.P,J2,4,SWDCLK*%
%TO.N,PA14{slash}SWCLK*%
X197485000Y-122555000D03*
%TO.P,J2,5,GND@1*%
%TO.N,GND*%
X196215000Y-123825000D03*
%TO.P,J2,6,SWO*%
%TO.N,unconnected-(J2-Pad6)*%
X197475000Y-123825000D03*
%TO.P,J2,7,KEY*%
%TO.N,unconnected-(J2-Pad7)*%
X196215000Y-125095000D03*
%TO.P,J2,8,NC*%
%TO.N,unconnected-(J2-Pad8)*%
X197485000Y-125095000D03*
%TO.P,J2,9,GND_DETECT*%
%TO.N,GND*%
X196215000Y-126365000D03*
%TO.P,J2,10,RESET*%
%TO.N,RST*%
X197485000Y-126365000D03*
%TD*%
D24*
%TO.P,DC_Input1,1*%
%TO.N,Net-(D1-Pad2)*%
X124374589Y-81220310D03*
D25*
%TO.P,DC_Input1,2*%
%TO.N,/Power/GND_Break*%
X118374589Y-81220310D03*
D26*
%TO.P,DC_Input1,3*%
%TO.N,GND*%
X121374589Y-85920310D03*
%TD*%
D27*
%TO.P,AE1,1,A*%
%TO.N,Net-(AE1-Pad1)*%
X194945000Y-107315000D03*
D28*
%TO.P,AE1,2*%
%TO.N,N/C*%
X197485000Y-104775000D03*
X192405000Y-104775000D03*
X197485000Y-109855000D03*
X192405000Y-109855000D03*
%TD*%
D10*
%TO.P,H3,1,1*%
%TO.N,GND*%
X196342000Y-72898000D03*
D11*
X196342000Y-72898000D03*
%TD*%
D29*
%TO.N,+3.3V*%
X181610000Y-116840000D03*
X182880000Y-125095000D03*
X189230000Y-124460000D03*
X186690000Y-91440000D03*
X173355000Y-91440000D03*
X163740500Y-93345000D03*
X170815000Y-130175000D03*
X175895000Y-116840000D03*
X182334500Y-90805000D03*
X168275000Y-99695000D03*
X186690000Y-121920000D03*
X170815000Y-88900000D03*
X179070000Y-125095000D03*
X156210000Y-86995000D03*
X163195000Y-130175000D03*
%TO.N,GND*%
X189865000Y-112395000D03*
X194310000Y-113665000D03*
X191135000Y-100330000D03*
X181610000Y-112395000D03*
X144018000Y-122682000D03*
X189865000Y-100965000D03*
X194945000Y-102235000D03*
X192405000Y-100965000D03*
X195580000Y-89535000D03*
X169545000Y-100965000D03*
X197485000Y-100965000D03*
X192405000Y-102235000D03*
X193040000Y-113665000D03*
X139954000Y-121666000D03*
X189865000Y-111125000D03*
X183515000Y-96520000D03*
X188595000Y-90805000D03*
X195580000Y-114935000D03*
X129540000Y-81280000D03*
X175895000Y-127000000D03*
X196850000Y-114935000D03*
X196215000Y-99695000D03*
X194310000Y-112395000D03*
X144018000Y-127000000D03*
X165091999Y-109944500D03*
X191135000Y-101600000D03*
X189865000Y-106045000D03*
X198120000Y-112395000D03*
X198120000Y-113665000D03*
X132588000Y-113538000D03*
X196904594Y-113670472D03*
X127660400Y-101600000D03*
X198120000Y-114935000D03*
X171450000Y-121920000D03*
X191770000Y-112395000D03*
X196215000Y-100965000D03*
X152400000Y-104140000D03*
X196850000Y-112395000D03*
X193040000Y-112395000D03*
X192402477Y-99680394D03*
X196215000Y-102235000D03*
X189865000Y-109855000D03*
X189865000Y-102235000D03*
X193669954Y-99680394D03*
X173990000Y-128270000D03*
X191770000Y-114935000D03*
X185420000Y-91440000D03*
X194945000Y-100965000D03*
X189865000Y-108585000D03*
X195580000Y-93345000D03*
X187325000Y-76835000D03*
X193040000Y-114935000D03*
X190500000Y-113665000D03*
X189865000Y-104775000D03*
X189865000Y-103505000D03*
X197485000Y-102235000D03*
X197485000Y-99695000D03*
X159385000Y-117475000D03*
X191770000Y-113665000D03*
X156845000Y-94615000D03*
X194306481Y-114927697D03*
X194945000Y-99695000D03*
X193671727Y-100942357D03*
X182880000Y-87630000D03*
X193675000Y-102235000D03*
X195580000Y-113665000D03*
X145288000Y-112979200D03*
X195580000Y-112395000D03*
%TO.N,PB4{slash}LED*%
X166370000Y-107315000D03*
X165100000Y-133350000D03*
%TO.N,+5V*%
X165100000Y-118745000D03*
X161290000Y-124460000D03*
%TO.N,Net-(10k1-Pad1)*%
X143510000Y-91440000D03*
X164465000Y-83820000D03*
%TO.N,Battery*%
X155575000Y-98425000D03*
X149225000Y-125095000D03*
X158115000Y-118745000D03*
X180975000Y-81280000D03*
X139065000Y-132080000D03*
X160020000Y-111125000D03*
X154305000Y-97155000D03*
X175895000Y-75565000D03*
%TO.N,PA15{slash}SDA*%
X178435000Y-91440000D03*
X168275000Y-125095000D03*
X165100000Y-106045000D03*
X184654610Y-114559912D03*
X180340000Y-123190000D03*
X179615500Y-106680000D03*
%TO.N,PB15{slash}SCL*%
X176530000Y-83820000D03*
X163830000Y-104775000D03*
X185420000Y-116205000D03*
X171450000Y-125095000D03*
X187325000Y-124460000D03*
X180250500Y-105410000D03*
%TO.N,USB5V*%
X139065000Y-127000000D03*
X143510000Y-120015000D03*
X148590000Y-118745000D03*
%TO.N,/Power/VDD*%
X144145000Y-130175000D03*
X144145000Y-124460000D03*
%TO.N,RST*%
X190500000Y-85090000D03*
X187325000Y-97790000D03*
X151130000Y-109220000D03*
%TO.N,Net-(C10-Pad1)*%
X164465000Y-94615000D03*
X161925000Y-85090000D03*
%TO.N,Charge{slash}LBO *%
X149665201Y-105215201D03*
X133350000Y-106045000D03*
X180340000Y-112395000D03*
%TO.N,Net-(D+1-Pad1)*%
X125095000Y-99695000D03*
%TO.N,Net-(D-1-Pad1)*%
X135890000Y-102235000D03*
X132943600Y-101346000D03*
X125730000Y-97155000D03*
%TO.N,Net-(D1-Pad2)*%
X126187200Y-72694800D03*
%TO.N,/Power/GND_Break*%
X123100500Y-103505000D03*
X124002800Y-90627200D03*
%TO.N,Charge Done*%
X187325000Y-94538800D03*
X135255000Y-106045000D03*
X149225000Y-104140000D03*
%TO.N,Net-(Done1-Pad2)*%
X121920000Y-106045000D03*
X122555000Y-109855000D03*
%TO.N,Net-(FL1-Pad2)*%
X144629861Y-114695541D03*
X139065000Y-114300000D03*
%TO.N,Net-(FL1-Pad4)*%
X144145000Y-116205000D03*
X139700000Y-115570000D03*
%TO.N,PA13{slash}SWDIO*%
X180975000Y-102235000D03*
%TO.N,PA14{slash}SWCLK*%
X167640000Y-103505000D03*
%TO.N,Power On*%
X141605000Y-102870000D03*
X192405000Y-95885000D03*
%TO.N,Boost SHDN{slash}PC1*%
X179070000Y-112395000D03*
X162560000Y-114300000D03*
X162560000Y-121285000D03*
X169545000Y-114300000D03*
%TO.N,PB5{slash}ZMOD_INT*%
X178435000Y-114935000D03*
X169545000Y-123190000D03*
%TO.N,PB6{slash}TX*%
X164465000Y-111125000D03*
X176530000Y-112395000D03*
X161925000Y-112395000D03*
X172085000Y-113030000D03*
%TO.N,PB7{slash}RX*%
X176530000Y-115570000D03*
X172720000Y-115570000D03*
X165100000Y-113030000D03*
X156845000Y-106680000D03*
%TO.N,Net-(L1-Pad2)*%
X132080000Y-132080000D03*
X165645500Y-116205000D03*
%TO.N,Net-(R7-Pad1)*%
X149860000Y-118745000D03*
X149860000Y-121285000D03*
%TO.N,Net-(R10-Pad2)*%
X142875000Y-97790000D03*
X154940000Y-99695000D03*
%TO.N,Net-(R11-Pad2)*%
X154305000Y-103505000D03*
X149225000Y-90805000D03*
%TO.N,/Power/THERM*%
X145415000Y-101600000D03*
X139700000Y-95250000D03*
%TO.N,Net-(TP1-Pad1)*%
X173990000Y-94615000D03*
%TO.N,Net-(RX1-Pad1)*%
X149860000Y-135890000D03*
X154305000Y-117475000D03*
%TO.N,Net-(TX1-Pad1)*%
X151130000Y-135890000D03*
X154940000Y-116205000D03*
%TO.N,VCC*%
X145415000Y-100330000D03*
X150495000Y-95250000D03*
X128168400Y-77343000D03*
X129540000Y-107950000D03*
X130810000Y-116205000D03*
X145415000Y-106680000D03*
X135890000Y-88265000D03*
X130810000Y-120015000D03*
%TD*%
D30*
%TO.N,PB4{slash}LED*%
X166370000Y-107315000D02*
X166459501Y-107404501D01*
X166459501Y-107404501D02*
X166459501Y-131990499D01*
X166459501Y-131990499D02*
X165100000Y-133350000D01*
%TO.N,Net-(10k1-Pad1)*%
X165179800Y-83105200D02*
X164465000Y-83820000D01*
X143510000Y-91440000D02*
X151130000Y-83820000D01*
X151130000Y-83820000D02*
X164465000Y-83820000D01*
X165179800Y-76758800D02*
X165179800Y-83105200D01*
%TO.N,Battery*%
X154305000Y-97155000D02*
X155575000Y-98425000D01*
%TO.N,PA15{slash}SDA*%
X170180000Y-125095000D02*
X168275000Y-125095000D01*
X171450000Y-123825000D02*
X170180000Y-125095000D01*
X178435000Y-92075000D02*
X178435000Y-91440000D01*
X184654610Y-114171018D02*
X184654610Y-114559912D01*
X165100000Y-106045000D02*
X165100000Y-99062112D01*
X177800000Y-92710000D02*
X178435000Y-92075000D01*
X179705000Y-123825000D02*
X171450000Y-123825000D01*
X171452112Y-92710000D02*
X177800000Y-92710000D01*
X165100000Y-99062112D02*
X171452112Y-92710000D01*
X180340000Y-123190000D02*
X179705000Y-123825000D01*
X179615500Y-109131908D02*
X184654610Y-114171018D01*
X179615500Y-106680000D02*
X179615500Y-109131908D01*
%TO.N,PB15{slash}SCL*%
X171450000Y-125095000D02*
X172270489Y-124274511D01*
X163830000Y-99061408D02*
X176530000Y-86361408D01*
X185420000Y-114300704D02*
X185420000Y-116205000D01*
X180340000Y-105499500D02*
X180340000Y-109220704D01*
X180250500Y-105410000D02*
X180340000Y-105499500D01*
X180340000Y-109220704D02*
X185420000Y-114300704D01*
X163830000Y-104775000D02*
X163830000Y-99061408D01*
X176530000Y-86361408D02*
X176530000Y-83820000D01*
X172270489Y-124274511D02*
X187139511Y-124274511D01*
X187139511Y-124274511D02*
X187325000Y-124460000D01*
%TO.N,/Power/VDD*%
X144145000Y-124460000D02*
X142875000Y-125730000D01*
X142875000Y-125730000D02*
X142875000Y-128905000D01*
X142875000Y-128905000D02*
X144145000Y-130175000D01*
%TO.N,RST*%
X189230000Y-97790000D02*
X187325000Y-97790000D01*
X190500000Y-96520000D02*
X189230000Y-97790000D01*
X190500000Y-85090000D02*
X190500000Y-96520000D01*
%TO.N,Net-(C10-Pad1)*%
X164465000Y-94615000D02*
X164465000Y-87630000D01*
X164465000Y-87630000D02*
X161925000Y-85090000D01*
%TO.N,Charge{slash}LBO *%
X138430000Y-107315000D02*
X140529799Y-105215201D01*
X178890999Y-105744901D02*
X179615499Y-105020401D01*
X169994511Y-88450489D02*
X169994510Y-92261194D01*
X175895000Y-82550000D02*
X169994511Y-88450489D01*
X133350000Y-106045000D02*
X134620000Y-107315000D01*
X179615499Y-105020401D02*
X179615499Y-85000499D01*
X179615499Y-85000499D02*
X177165000Y-82550000D01*
X169994510Y-92261194D02*
X155761194Y-106494510D01*
X178890999Y-110945999D02*
X178890999Y-105744901D01*
X180340000Y-112395000D02*
X178890999Y-110945999D01*
X155761194Y-106494510D02*
X150944510Y-106494510D01*
X134620000Y-107315000D02*
X138430000Y-107315000D01*
X177165000Y-82550000D02*
X175895000Y-82550000D01*
X150944510Y-106494510D02*
X149665201Y-105215201D01*
X140529799Y-105215201D02*
X149665201Y-105215201D01*
%TO.N,Net-(D+1-Pad1)*%
X124358400Y-100431600D02*
X124358400Y-131064000D01*
X125095000Y-99695000D02*
X124358400Y-100431600D01*
%TO.N,Net-(D-1-Pad1)*%
X125730000Y-97155000D02*
X125730000Y-98425000D01*
X132562600Y-102235000D02*
X132562600Y-101727000D01*
X123825000Y-126212600D02*
X123825000Y-98425000D01*
X123825000Y-98425000D02*
X125095000Y-97155000D01*
X125730000Y-98425000D02*
X129540000Y-102235000D01*
X132562600Y-102235000D02*
X135890000Y-102235000D01*
X118922800Y-131114800D02*
X123825000Y-126212600D01*
X129540000Y-102235000D02*
X132562600Y-102235000D01*
X132562600Y-101727000D02*
X132943600Y-101346000D01*
X125095000Y-97155000D02*
X125730000Y-97155000D01*
%TO.N,Charge Done*%
X189865000Y-91998800D02*
X189865000Y-88265000D01*
X169545000Y-92075000D02*
X155575000Y-106045000D01*
X139065000Y-104140000D02*
X149225000Y-104140000D01*
X155575000Y-106045000D02*
X151765000Y-106045000D01*
X151765000Y-106045000D02*
X149860000Y-104140000D01*
X187325000Y-94538800D02*
X189865000Y-91998800D01*
X180975000Y-85090000D02*
X177800000Y-81915000D01*
X149860000Y-104140000D02*
X149225000Y-104140000D01*
X189865000Y-88265000D02*
X186690000Y-85090000D01*
X186690000Y-85090000D02*
X180975000Y-85090000D01*
X169545000Y-87630000D02*
X169545000Y-92075000D01*
X175260000Y-81915000D02*
X169545000Y-87630000D01*
X135255000Y-106045000D02*
X137160000Y-106045000D01*
X137160000Y-106045000D02*
X139065000Y-104140000D01*
X177800000Y-81915000D02*
X175260000Y-81915000D01*
%TO.N,Net-(Done1-Pad2)*%
X121920000Y-106045000D02*
X122555000Y-106680000D01*
X122555000Y-106680000D02*
X122555000Y-109855000D01*
%TO.N,Net-(FL1-Pad2)*%
X144234320Y-114300000D02*
X144629861Y-114695541D01*
X139065000Y-114300000D02*
X144234320Y-114300000D01*
%TO.N,Net-(FL1-Pad4)*%
X139700000Y-115570000D02*
X143510000Y-115570000D01*
X143510000Y-115570000D02*
X144145000Y-116205000D01*
%TO.N,PA13{slash}SWDIO*%
X195580000Y-119380000D02*
X197485000Y-121285000D01*
X191135000Y-119380000D02*
X195580000Y-119380000D01*
X180975000Y-109220000D02*
X180975000Y-102235000D01*
X180975000Y-109220000D02*
X191135000Y-119380000D01*
%TO.N,PA14{slash}SWCLK*%
X198204521Y-126663036D02*
X198204521Y-123274521D01*
X168364501Y-128994501D02*
X195873056Y-128994501D01*
X167623499Y-128253499D02*
X168364501Y-128994501D01*
X195873056Y-128994501D02*
X198204521Y-126663036D01*
X167640000Y-103505000D02*
X167623499Y-103521501D01*
X198204521Y-123274521D02*
X197485000Y-122555000D01*
X167623499Y-103521501D02*
X167623499Y-128253499D01*
%TO.N,Power On*%
X174625000Y-81280000D02*
X168910000Y-86995000D01*
X152400000Y-102870000D02*
X141605000Y-102870000D01*
X178435000Y-81280000D02*
X174625000Y-81280000D01*
X154940000Y-105410000D02*
X152400000Y-102870000D01*
X191770000Y-83820000D02*
X180975000Y-83820000D01*
X168910000Y-86995000D02*
X168910000Y-91440000D01*
X192405000Y-95885000D02*
X192405000Y-84455000D01*
X192405000Y-84455000D02*
X191770000Y-83820000D01*
X168910000Y-91440000D02*
X154940000Y-105410000D01*
X180975000Y-83820000D02*
X178435000Y-81280000D01*
%TO.N,Boost SHDN{slash}PC1*%
X179070000Y-112395000D02*
X177165000Y-114300000D01*
X162560000Y-114300000D02*
X162560000Y-121285000D01*
X177165000Y-114300000D02*
X169545000Y-114300000D01*
%TO.N,PB5{slash}ZMOD_INT*%
X178435000Y-122555000D02*
X178435000Y-114935000D01*
X169545000Y-123190000D02*
X177800000Y-123190000D01*
X177800000Y-123190000D02*
X178435000Y-122555000D01*
%TO.N,PB6{slash}TX*%
X172085000Y-113030000D02*
X172720000Y-113665000D01*
X163195000Y-111125000D02*
X164465000Y-111125000D01*
X161925000Y-112395000D02*
X163195000Y-111125000D01*
X176530000Y-113030000D02*
X176530000Y-112395000D01*
X175895000Y-113665000D02*
X176530000Y-113030000D01*
X172720000Y-113665000D02*
X175895000Y-113665000D01*
%TO.N,PB7{slash}RX*%
X156845000Y-106680000D02*
X163178999Y-106680000D01*
X163178999Y-106680000D02*
X165816500Y-109317501D01*
X165816500Y-109317501D02*
X165816500Y-112313500D01*
X172720000Y-115570000D02*
X176530000Y-115570000D01*
X165816500Y-112313500D02*
X165100000Y-113030000D01*
%TO.N,Net-(L1-Pad2)*%
X135890000Y-137160000D02*
X160654296Y-137160000D01*
X164375499Y-133438797D02*
X164375499Y-117475001D01*
X132080000Y-132080000D02*
X132080000Y-133350000D01*
X160654296Y-137160000D02*
X164375499Y-133438797D01*
X132080000Y-133350000D02*
X135890000Y-137160000D01*
X164375499Y-117475001D02*
X165645500Y-116205000D01*
%TO.N,Net-(R7-Pad1)*%
X149860000Y-121285000D02*
X149860000Y-118745000D01*
%TO.N,Net-(R10-Pad2)*%
X142875000Y-97790000D02*
X153035000Y-97790000D01*
X153035000Y-97790000D02*
X154940000Y-99695000D01*
%TO.N,Net-(R11-Pad2)*%
X156845000Y-100965000D02*
X154305000Y-103505000D01*
X149225000Y-90805000D02*
X156845000Y-98425000D01*
X156845000Y-98425000D02*
X156845000Y-100965000D01*
%TO.N,/Power/THERM*%
X139700000Y-95885000D02*
X139700000Y-95250000D01*
X145415000Y-101600000D02*
X139700000Y-95885000D01*
%TO.N,Net-(RX1-Pad1)*%
X149860000Y-135890000D02*
X149860000Y-125730000D01*
X155575000Y-118745000D02*
X154305000Y-117475000D01*
X155575000Y-120015000D02*
X155575000Y-118745000D01*
X149860000Y-125730000D02*
X155575000Y-120015000D01*
%TO.N,Net-(TX1-Pad1)*%
X151130000Y-135890000D02*
X151130000Y-126365000D01*
X156845000Y-120650000D02*
X156845000Y-118110000D01*
X156845000Y-118110000D02*
X154940000Y-116205000D01*
X151130000Y-126365000D02*
X156845000Y-120650000D01*
%TD*%
M02*
